<svg width="210" height="50" viewBox="0 0 210 50" fill="none" xmlns="http://www.w3.org/2000/svg">
<path d="M29.2594 34.4693C28.2607 34.4693 27.3633 33.8593 26.9959 32.9307L25.5358 29.2407C25.1683 28.312 24.271 27.702 23.2723 27.702H13.2755C12.2601 27.702 11.3514 28.3323 10.9956 29.2834L9.64708 32.888C9.2913 33.839 8.38254 34.4693 7.36713 34.4693H3.66094C1.92139 34.4693 0.743257 32.6975 1.41618 31.0934L13.8335 1.49262C14.2128 0.588368 15.0976 0 16.0782 0H20.9164C21.9002 0 22.7873 0.592157 23.1646 1.50072L35.4564 31.1015C36.1221 32.7046 34.9441 34.4693 33.2083 34.4693H29.2594ZM20.6176 15.4509C19.8454 13.3186 16.8337 13.3077 16.046 15.4343L15.1875 17.7524C14.5986 19.3423 15.7748 21.0321 17.4702 21.0321H19.1682C20.8562 21.0321 22.0318 19.3561 21.457 17.769L20.6176 15.4509Z" fill="#647B64"/>
<path d="M68.9874 36.076C68.9874 38.1532 68.6303 40.0519 67.9163 41.7722C67.2347 43.4599 66.2447 44.9205 64.9465 46.1538C63.6482 47.3548 62.074 48.296 60.224 48.9776C58.4064 49.6592 56.3778 50 54.1383 50C51.8663 50 49.8215 49.6592 48.0039 48.9776C46.1863 48.296 44.6446 47.3548 43.3788 46.1538C42.113 44.9205 41.1392 43.4599 40.4576 41.7722C39.7761 40.0519 39.4353 38.1532 39.4353 36.076V25.9495C39.4353 24.605 38.3454 23.5152 37.001 23.5152H36.8549H29.2981C28.21 23.5152 27.254 22.7931 26.9566 21.7464L25.808 17.7054C25.3662 16.1511 26.5337 14.6056 28.1495 14.6056H45.2775C46.6219 14.6056 47.7118 15.6955 47.7118 17.0399V35.3944C47.7118 36.3356 47.8254 37.2282 48.0526 38.0721C48.3122 38.9159 48.6855 39.6787 49.1724 40.3603C49.6917 41.0094 50.357 41.5287 51.1685 41.9182C52.0123 42.3077 53.0185 42.5024 54.187 42.5024C55.3554 42.5024 56.3453 42.3077 57.1568 41.9182C58.0007 41.5287 58.6823 41.0094 59.2016 40.3603C59.7209 39.6787 60.0941 38.9159 60.3213 38.0721C60.5485 37.2282 60.6621 36.3356 60.6621 35.3944V17.0399C60.6621 15.6955 61.752 14.6056 63.0964 14.6056H66.5531C67.8975 14.6056 68.9874 15.6955 68.9874 17.0399V36.076Z" fill="#647B64"/>
<path d="M86.726 19.3576C86.9896 18.7518 87.5873 18.36 88.2479 18.36C88.9106 18.36 89.5099 18.7543 89.7721 19.363L94.6501 30.6863C95.0237 31.5536 94.3877 32.52 93.4434 32.52C92.9092 32.52 92.4282 32.1966 92.2267 31.7019L91.9 30.9C91.5009 29.9204 90.5485 29.28 89.4907 29.28H86.8418C85.7907 29.28 84.8462 29.9223 84.46 30.9L84.1395 31.7113C83.9467 32.1993 83.4752 32.52 82.9504 32.52C82.0296 32.52 81.4107 31.5759 81.7781 30.7315L86.726 19.3576ZM88.1671 27.12C89.2267 27.12 89.9588 26.0601 89.5838 25.0691C89.0916 23.7686 87.2538 23.763 86.7538 25.0605C86.3713 26.0528 87.1037 27.12 88.1671 27.12Z" fill="#647B64"/>
<path d="M95.6577 20.0392C95.4123 19.1998 96.0417 18.36 96.9162 18.36C97.5117 18.36 98.0324 18.7613 98.1842 19.3372L100.662 28.7403C100.665 28.7519 100.675 28.76 100.687 28.76C100.699 28.76 100.709 28.7524 100.712 28.7412L103.454 19.6017C103.675 18.8647 104.354 18.36 105.123 18.36C105.896 18.36 106.577 18.8691 106.795 19.6106L109.481 28.741C109.484 28.7523 109.495 28.76 109.506 28.76C109.518 28.76 109.529 28.752 109.532 28.7405L112.073 19.3041C112.222 18.7471 112.728 18.36 113.304 18.36C114.155 18.36 114.768 19.1771 114.529 19.9938L111.212 31.3377C111.008 32.0384 110.365 32.52 109.635 32.52C108.916 32.52 108.281 32.0529 108.066 31.3669L105.113 21.9191C105.109 21.9077 105.099 21.9 105.087 21.9C105.075 21.9 105.064 21.9077 105.061 21.9191L102.107 31.3669C101.893 32.0529 101.257 32.52 100.539 32.52C99.8085 32.52 99.1659 32.0384 98.961 31.3377L95.6577 20.0392Z" fill="#647B64"/>
<path d="M116.685 21.36C116.685 19.7031 118.028 18.36 119.685 18.36H124.965C125.572 18.36 126.065 18.8525 126.065 19.46C126.065 20.0675 125.572 20.56 124.965 20.56H121.005C120.011 20.56 119.205 21.3659 119.205 22.36C119.205 23.3541 120.011 24.16 121.005 24.16H124.645C125.23 24.16 125.705 24.6346 125.705 25.22C125.705 25.8054 125.23 26.28 124.645 26.28H121.205C120.1 26.28 119.205 27.1754 119.205 28.28C119.205 29.3846 120.1 30.28 121.205 30.28H125.305C125.923 30.28 126.425 30.7814 126.425 31.4C126.425 32.0186 125.923 32.52 125.305 32.52H119.685C118.028 32.52 116.685 31.1769 116.685 29.52V21.36Z" fill="#647B64"/>
<path d="M137.008 20.3367C136.541 20.8494 135.695 20.8143 135.073 20.5081C135.04 20.4918 135.006 20.4757 134.972 20.46C134.492 20.22 134.005 20.1 133.512 20.1C133.219 20.1 132.925 20.14 132.632 20.22C132.339 20.2867 132.072 20.4 131.832 20.56C131.592 20.7067 131.392 20.9067 131.232 21.16C131.085 21.4 131.012 21.6933 131.012 22.04C131.012 22.36 131.079 22.6333 131.212 22.86C131.345 23.0867 131.525 23.28 131.752 23.44C131.992 23.6 132.279 23.74 132.612 23.86C132.945 23.98 133.312 24.1 133.712 24.22C134.165 24.3667 134.632 24.5333 135.112 24.72C135.605 24.9067 136.052 25.1533 136.452 25.46C136.865 25.7667 137.199 26.1533 137.452 26.62C137.719 27.0867 137.852 27.6667 137.852 28.36C137.852 29.12 137.712 29.7867 137.432 30.36C137.152 30.92 136.779 31.3867 136.312 31.76C135.845 32.1333 135.299 32.4133 134.672 32.6C134.045 32.7867 133.385 32.88 132.692 32.88C131.772 32.88 130.872 32.7133 129.992 32.38C129.49 32.1824 129.041 31.9329 128.643 31.6313C128.142 31.2514 128.192 30.5236 128.652 30.0946C129.172 29.6091 130.004 29.7087 130.604 30.0916C130.733 30.1739 130.869 30.2501 131.012 30.32C131.599 30.6 132.172 30.74 132.732 30.74C133.025 30.74 133.325 30.7067 133.632 30.64C133.939 30.56 134.212 30.4333 134.452 30.26C134.705 30.0867 134.905 29.8733 135.052 29.62C135.212 29.3533 135.292 29.0267 135.292 28.64C135.292 28.2667 135.205 27.96 135.032 27.72C134.859 27.4667 134.625 27.2533 134.332 27.08C134.039 26.8933 133.692 26.7333 133.292 26.6C132.892 26.4667 132.472 26.3267 132.032 26.18C131.605 26.0467 131.179 25.8867 130.752 25.7C130.325 25.5133 129.939 25.2667 129.592 24.96C129.259 24.6533 128.985 24.28 128.772 23.84C128.559 23.3867 128.452 22.8267 128.452 22.16C128.452 21.44 128.599 20.82 128.892 20.3C129.199 19.78 129.592 19.3533 130.072 19.02C130.565 18.6733 131.119 18.42 131.732 18.26C132.359 18.0867 132.992 18 133.632 18C134.352 18 135.079 18.1267 135.812 18.38C136.189 18.5081 136.541 18.6685 136.868 18.8613C137.394 19.1724 137.42 19.8845 137.008 20.3367Z" fill="#647B64"/>
<path d="M139.696 25.4C139.696 24.2667 139.883 23.2467 140.256 22.34C140.643 21.42 141.17 20.64 141.836 20C142.516 19.36 143.316 18.8667 144.236 18.52C145.17 18.1733 146.183 18 147.276 18C148.383 18 149.403 18.1733 150.336 18.52C151.27 18.8667 152.076 19.36 152.756 20C153.436 20.64 153.963 21.42 154.336 22.34C154.723 23.2467 154.916 24.2667 154.916 25.4C154.916 26.5067 154.723 27.52 154.336 28.44C153.963 29.3467 153.436 30.1333 152.756 30.8C152.076 31.4533 151.27 31.9667 150.336 32.34C149.403 32.7 148.383 32.88 147.276 32.88C146.183 32.88 145.17 32.7 144.236 32.34C143.316 31.9667 142.516 31.4533 141.836 30.8C141.17 30.1333 140.643 29.3467 140.256 28.44C139.883 27.52 139.696 26.5067 139.696 25.4ZM142.436 25.4C142.436 26.16 142.55 26.86 142.776 27.5C143.016 28.1267 143.35 28.6733 143.776 29.14C144.216 29.6067 144.73 29.9733 145.316 30.24C145.916 30.4933 146.576 30.62 147.296 30.62C148.016 30.62 148.676 30.4933 149.276 30.24C149.876 29.9733 150.39 29.6067 150.816 29.14C151.256 28.6733 151.59 28.1267 151.816 27.5C152.056 26.86 152.176 26.16 152.176 25.4C152.176 24.6667 152.056 23.9867 151.816 23.36C151.59 22.7333 151.263 22.1867 150.836 21.72C150.41 21.2533 149.896 20.8867 149.296 20.62C148.696 20.3533 148.03 20.22 147.296 20.22C146.563 20.22 145.896 20.3533 145.296 20.62C144.71 20.8867 144.203 21.2533 143.776 21.72C143.35 22.1867 143.016 22.7333 142.776 23.36C142.55 23.9867 142.436 24.6667 142.436 25.4Z" fill="#647B64"/>
<path d="M157.349 20.679C157.349 19.3983 158.387 18.36 159.668 18.36C160.641 18.36 161.511 18.9681 161.846 19.8823L164.959 28.3919C164.965 28.4088 164.981 28.42 164.999 28.42C165.017 28.42 165.033 28.4087 165.039 28.3917L168.113 19.8954C168.447 18.9739 169.322 18.36 170.302 18.36C171.587 18.36 172.629 19.4019 172.629 20.6872V31.27C172.629 31.9604 172.069 32.52 171.379 32.52C170.689 32.52 170.129 31.9604 170.129 31.27V21.1636C170.129 21.1506 170.118 21.14 170.105 21.14C170.095 21.14 170.087 21.1461 170.083 21.1553L166.099 31.6988C165.912 32.193 165.439 32.52 164.911 32.52C164.381 32.52 163.906 32.1904 163.721 31.6933L159.795 21.1554C159.791 21.1461 159.782 21.14 159.773 21.14C159.759 21.14 159.749 21.1506 159.749 21.1636V31.32C159.749 31.9827 159.212 32.52 158.549 32.52C157.886 32.52 157.349 31.9827 157.349 31.32V20.679Z" fill="#647B64"/>
<path d="M175.747 21.36C175.747 19.7031 177.09 18.36 178.747 18.36H184.027C184.635 18.36 185.127 18.8525 185.127 19.46C185.127 20.0675 184.635 20.56 184.027 20.56H180.067C179.073 20.56 178.267 21.3659 178.267 22.36C178.267 23.3541 179.073 24.16 180.067 24.16H183.707C184.293 24.16 184.767 24.6346 184.767 25.22C184.767 25.8054 184.293 26.28 183.707 26.28H180.267C179.163 26.28 178.267 27.1754 178.267 28.28C178.267 29.3846 179.163 30.28 180.267 30.28H184.367C184.986 30.28 185.487 30.7814 185.487 31.4C185.487 32.0186 184.986 32.52 184.367 32.52H178.747C177.09 32.52 175.747 31.1769 175.747 29.52V21.36Z" fill="#647B64"/>
<path d="M204.234 27.32C204.234 28.1733 204.088 28.9467 203.794 29.64C203.501 30.32 203.101 30.9 202.594 31.38C202.088 31.86 201.488 32.2333 200.794 32.5C200.101 32.7533 199.348 32.88 198.534 32.88C197.721 32.88 196.968 32.7533 196.274 32.5C195.581 32.2333 194.974 31.86 194.454 31.38C193.948 30.9 193.548 30.32 193.254 29.64C192.974 28.9467 192.834 28.1733 192.834 27.32V19.62C192.834 18.9241 193.398 18.36 194.094 18.36C194.79 18.36 195.354 18.9241 195.354 19.62V27.22C195.354 27.6333 195.408 28.0467 195.514 28.46C195.621 28.86 195.794 29.22 196.034 29.54C196.288 29.86 196.614 30.12 197.014 30.32C197.428 30.52 197.934 30.62 198.534 30.62C199.134 30.62 199.634 30.52 200.034 30.32C200.448 30.12 200.774 29.86 201.014 29.54C201.268 29.22 201.448 28.86 201.554 28.46C201.661 28.0467 201.714 27.6333 201.714 27.22V19.62C201.714 18.9241 202.279 18.36 202.974 18.36C203.67 18.36 204.234 18.9241 204.234 19.62V27.32Z" fill="#647B64"/>
<path d="M207.232 19.62C207.232 18.9241 207.796 18.36 208.492 18.36C209.188 18.36 209.752 18.9241 209.752 19.62V31.26C209.752 31.9559 209.188 32.52 208.492 32.52C207.796 32.52 207.232 31.9559 207.232 31.26V19.62Z" fill="#647B64"/>
</svg>
